<svg width="130" height="51" viewBox="0 0 130 51" fill="none" xmlns="http://www.w3.org/2000/svg">
<path d="M62.2786 5.46807C62.2786 4.87199 62.4734 4.37908 62.8746 3.98934C63.2758 3.59959 63.8261 3.40472 64.5139 3.40472C65.1902 3.40472 65.7404 3.59959 66.1416 3.98934C66.5428 4.37908 66.7491 4.87199 66.7491 5.46807C66.7491 6.07561 66.5428 6.56852 66.1301 6.95826C65.7175 7.348 65.1787 7.54287 64.5024 7.54287C63.8261 7.54287 63.2873 7.348 62.8746 6.95826C62.4849 6.57998 62.2786 6.07561 62.2786 5.46807ZM66.5199 24.2789H62.5193V9.3311H66.5199V24.2789Z" fill="white"/>
<path d="M68.801 16.7019C68.801 14.4093 69.3513 12.5637 70.4402 11.1652C71.5292 9.76675 72.9965 9.0675 74.8535 9.0675C76.4927 9.0675 77.7651 9.62919 78.6821 10.7526L78.8426 9.34262H82.4649V23.786C82.4649 25.0928 82.1669 26.2276 81.5708 27.202C80.9748 28.1649 80.138 28.91 79.0604 29.4144C77.9829 29.9187 76.722 30.1709 75.2776 30.1709C74.1772 30.1709 73.1111 29.9531 72.0794 29.5175C71.0363 29.0819 70.2568 28.5203 69.7181 27.821L71.4834 25.3908C72.4807 26.5028 73.6843 27.0645 75.1057 27.0645C76.1603 27.0645 76.9856 26.7779 77.5817 26.2162C78.1663 25.6545 78.4643 24.8521 78.4643 23.809V23.0065C77.5473 24.0497 76.3322 24.5655 74.8306 24.5655C73.0309 24.5655 71.5865 23.8663 70.4746 22.4563C69.3627 21.0578 68.8125 19.1894 68.8125 16.8738V16.7019H68.801ZM72.7902 16.9885C72.7902 18.3411 73.0653 19.4071 73.604 20.1752C74.1428 20.9432 74.8879 21.3329 75.8393 21.3329C77.0544 21.3329 77.9256 20.8744 78.4529 19.9688V13.6756C77.9141 12.7586 77.0544 12.3115 75.8737 12.3115C74.9108 12.3115 74.1657 12.7013 73.6155 13.4922C73.0653 14.2603 72.7902 15.4409 72.7902 16.9885Z" fill="white"/>
<path d="M88.7697 9.3312L88.8957 11.0621C89.9618 9.73241 91.3947 9.05609 93.1944 9.05609C94.7763 9.05609 95.957 9.52608 96.725 10.4546C97.493 11.3831 97.8942 12.7701 97.9171 14.6271V24.279H93.928V14.7188C93.928 13.8706 93.7446 13.263 93.3778 12.8733C93.011 12.495 92.392 12.3001 91.5437 12.3001C90.4203 12.3001 89.5835 12.7816 89.0218 13.733V24.2675H85.0327V9.3312H88.7697Z" fill="white"/>
<path d="M100.485 5.46807C100.485 4.87199 100.68 4.37908 101.081 3.98934C101.482 3.59959 102.032 3.40472 102.72 3.40472C103.396 3.40472 103.947 3.59959 104.348 3.98934C104.749 4.37908 104.955 4.87199 104.955 5.46807C104.955 6.07561 104.749 6.56852 104.336 6.95826C103.924 7.348 103.385 7.54287 102.709 7.54287C102.032 7.54287 101.494 7.348 101.081 6.95826C100.691 6.57998 100.485 6.07561 100.485 5.46807ZM104.726 24.2789H100.726V9.3311H104.726V24.2789Z" fill="white"/>
<path d="M112.372 5.66296V9.33113H114.928V12.2542H112.372V19.7166C112.372 20.2668 112.475 20.6681 112.693 20.9088C112.899 21.1495 113.312 21.2641 113.908 21.2641C114.355 21.2641 114.745 21.2297 115.077 21.1724V24.1987C114.298 24.4394 113.484 24.554 112.659 24.554C109.862 24.554 108.429 23.1441 108.383 20.3127V12.2657H106.205V9.3426H108.383V5.67443H112.372V5.66296Z" fill="white"/>
<path d="M123.594 24.554C121.405 24.554 119.617 23.8777 118.241 22.5365C116.866 21.1954 116.178 19.4071 116.178 17.1604V16.7706C116.178 15.269 116.464 13.9278 117.049 12.7471C117.634 11.5664 118.448 10.6494 119.514 10.0075C120.58 9.36552 121.795 9.04456 123.147 9.04456C125.188 9.04456 126.804 9.68649 127.973 10.9818C129.143 12.2657 129.739 14.0998 129.739 16.4611V18.0889H120.224C120.35 19.0632 120.74 19.8427 121.394 20.4388C122.047 21.0234 122.861 21.3214 123.858 21.3214C125.394 21.3214 126.598 20.7598 127.457 19.6478L129.418 21.8488C128.822 22.697 128.008 23.3619 126.987 23.8319C125.979 24.3133 124.844 24.554 123.594 24.554ZM123.147 12.2771C122.356 12.2771 121.714 12.5408 121.222 13.0795C120.729 13.6183 120.419 14.3863 120.27 15.3836H125.818V15.0626C125.795 14.18 125.566 13.4922 125.096 12.9993C124.638 12.5179 123.984 12.2771 123.147 12.2771Z" fill="white"/>
<path opacity="0.5" d="M54.067 0.35129L41.3372 47.8829C41.2725 48.0986 41.0136 48.1634 40.8626 48.0123L32.3401 39.4899L38.7266 15.6701C38.7913 15.4544 38.5971 15.2602 38.3813 15.3249L14.5616 21.7114L6.08231 13.2321C5.93128 13.081 5.99601 12.8221 6.21177 12.7574L53.7218 0.00607603C53.9375 -0.0370757 54.1317 0.157107 54.067 0.35129Z" fill="#00B37E"/>
<path opacity="0.5" d="M30.2885 38.49L27.009 50.7882C26.9442 51.004 26.6853 51.0687 26.5343 50.9177L0.0823113 24.4873C-0.0687196 24.3362 -0.00399244 24.0773 0.211766 24.0126L12.51 20.7115L30.2885 38.49Z" fill="#00B37E"/>
<path d="M36.6752 14.6699L30.2887 38.4897L12.5103 20.7112L36.33 14.3247C36.5457 14.26 36.7399 14.4542 36.6752 14.6699Z" fill="#00B37E"/>
<path d="M67.622 44.6314C67.622 44.4246 67.576 44.2334 67.4839 44.0576C67.3969 43.8767 67.2153 43.7139 66.939 43.5691C66.6678 43.4192 66.2585 43.29 65.711 43.1814C65.2505 43.0832 64.8335 42.9669 64.46 42.8325C64.0916 42.6981 63.777 42.5353 63.516 42.344C63.2602 42.1527 63.0632 41.9279 62.9251 41.6694C62.7869 41.411 62.7179 41.1086 62.7179 40.7622C62.7179 40.4314 62.7895 40.1187 62.9328 39.824C63.0811 39.5294 63.2884 39.2683 63.5544 39.0409C63.8256 38.8134 64.1505 38.6351 64.5291 38.5059C64.9077 38.3766 65.3298 38.312 65.7954 38.312C66.4606 38.312 67.0285 38.4309 67.4992 38.6687C67.97 38.9065 68.3307 39.2244 68.5814 39.6224C68.8321 40.0153 68.9574 40.4521 68.9574 40.9328H67.5376C67.5376 40.7002 67.4685 40.4753 67.3304 40.2582C67.1974 40.0359 67.0004 39.8524 66.7394 39.7077C66.4836 39.563 66.1689 39.4906 65.7954 39.4906C65.4015 39.4906 65.0817 39.5526 64.8361 39.6767C64.5956 39.7956 64.4191 39.9481 64.3065 40.1342C64.1991 40.3203 64.1454 40.5167 64.1454 40.7235C64.1454 40.8785 64.171 41.0181 64.2221 41.1422C64.2784 41.2611 64.3756 41.3722 64.5138 41.4756C64.6519 41.5738 64.8463 41.6668 65.097 41.7547C65.3477 41.8426 65.6675 41.9305 66.0564 42.0183C66.7369 42.1734 67.2971 42.3595 67.7372 42.5766C68.1772 42.7937 68.5046 43.0599 68.7195 43.3753C68.9344 43.6906 69.0419 44.0731 69.0419 44.5228C69.0419 44.8898 68.9651 45.2258 68.8116 45.5308C68.6632 45.8358 68.4458 46.0994 68.1593 46.3217C67.8779 46.5388 67.5402 46.7094 67.1462 46.8335C66.7573 46.9524 66.3199 47.0118 65.8338 47.0118C65.1022 47.0118 64.4831 46.88 63.9765 46.6164C63.47 46.3527 63.0863 46.0116 62.8253 45.5929C62.5644 45.1742 62.4339 44.7322 62.4339 44.267H63.8614C63.8819 44.6598 63.9944 44.9726 64.1991 45.2052C64.4038 45.4326 64.6545 45.5954 64.9512 45.6937C65.248 45.7867 65.5422 45.8332 65.8338 45.8332C66.2227 45.8332 66.5476 45.7815 66.8085 45.6782C67.0746 45.5748 67.2767 45.4326 67.4148 45.2517C67.553 45.0708 67.622 44.864 67.622 44.6314Z" fill="white"/>
<path d="M72.3267 34.9468V46.8567H70.9068V34.9468H72.3267ZM71.989 42.344L71.398 42.3207C71.4031 41.747 71.4876 41.2171 71.6513 40.7312C71.815 40.2401 72.0453 39.8137 72.342 39.4518C72.6388 39.09 72.9918 38.8108 73.4011 38.6144C73.8156 38.4128 74.2735 38.312 74.7749 38.312C75.1842 38.312 75.5526 38.3689 75.8801 38.4826C76.2075 38.5911 76.4864 38.7669 76.7166 39.0099C76.952 39.2528 77.1311 39.5681 77.2539 39.9558C77.3767 40.3383 77.4381 40.8062 77.4381 41.3593V46.8567H76.0105V41.3438C76.0105 40.9044 75.9466 40.5529 75.8187 40.2892C75.6908 40.0204 75.504 39.8266 75.2584 39.7077C75.0128 39.5836 74.711 39.5216 74.3528 39.5216C73.9998 39.5216 73.6774 39.5966 73.3858 39.7465C73.0993 39.8964 72.8511 40.1031 72.6413 40.3668C72.4367 40.6304 72.2755 40.9328 72.1578 41.274C72.0453 41.61 71.989 41.9667 71.989 42.344Z" fill="white"/>
<path d="M79.1879 42.755V42.5766C79.1879 41.9718 79.2749 41.411 79.4488 40.894C79.6228 40.3719 79.8735 39.9196 80.201 39.5371C80.5284 39.1494 80.925 38.8496 81.3906 38.6377C81.8562 38.4206 82.378 38.312 82.9562 38.312C83.5395 38.312 84.0639 38.4206 84.5295 38.6377C85.0002 38.8496 85.3993 39.1494 85.7268 39.5371C86.0594 39.9196 86.3126 40.3719 86.4866 40.894C86.6606 41.411 86.7475 41.9718 86.7475 42.5766V42.755C86.7475 43.3598 86.6606 43.9206 86.4866 44.4375C86.3126 44.9545 86.0594 45.4068 85.7268 45.7945C85.3993 46.177 85.0028 46.4768 84.5372 46.6939C84.0767 46.9058 83.5548 47.0118 82.9716 47.0118C82.3883 47.0118 81.8638 46.9058 81.3982 46.6939C80.9326 46.4768 80.5335 46.177 80.201 45.7945C79.8735 45.4068 79.6228 44.9545 79.4488 44.4375C79.2749 43.9206 79.1879 43.3598 79.1879 42.755ZM80.6077 42.5766V42.755C80.6077 43.1737 80.6563 43.5691 80.7535 43.9413C80.8508 44.3083 80.9966 44.634 81.191 44.9183C81.3906 45.2026 81.6387 45.4274 81.9355 45.5929C82.2322 45.7531 82.5776 45.8332 82.9716 45.8332C83.3604 45.8332 83.7007 45.7531 83.9923 45.5929C84.2891 45.4274 84.5346 45.2026 84.7291 44.9183C84.9235 44.634 85.0693 44.3083 85.1665 43.9413C85.2689 43.5691 85.32 43.1737 85.32 42.755V42.5766C85.32 42.1631 85.2689 41.7728 85.1665 41.4058C85.0693 41.0336 84.9209 40.7054 84.7214 40.4211C84.527 40.1316 84.2814 39.9041 83.9846 39.7387C83.693 39.5733 83.3502 39.4906 82.9562 39.4906C82.5674 39.4906 82.2245 39.5733 81.9278 39.7387C81.6361 39.9041 81.3906 40.1316 81.191 40.4211C80.9966 40.7054 80.8508 41.0336 80.7535 41.4058C80.6563 41.7728 80.6077 42.1631 80.6077 42.5766Z" fill="white"/>
<path d="M89.9479 40.0799V50.0823H88.5204V38.4671H89.8251L89.9479 40.0799ZM95.5428 42.5921V42.755C95.5428 43.3649 95.4712 43.931 95.3279 44.453C95.1847 44.97 94.9749 45.4197 94.6986 45.8022C94.4274 46.1847 94.0923 46.482 93.6932 46.6939C93.2941 46.9058 92.8362 47.0118 92.3194 47.0118C91.7924 47.0118 91.3268 46.9239 90.9226 46.7482C90.5184 46.5724 90.1756 46.3166 89.8942 45.9806C89.6128 45.6446 89.3877 45.2414 89.2188 44.771C89.0551 44.3006 88.9425 43.7707 88.8811 43.1814V42.313C88.9425 41.6927 89.0576 41.137 89.2265 40.6459C89.3953 40.1548 89.6179 39.7361 89.8942 39.3898C90.1756 39.0383 90.5158 38.7721 90.9149 38.5911C91.314 38.4051 91.7745 38.312 92.2964 38.312C92.8183 38.312 93.2813 38.4154 93.6855 38.6222C94.0897 38.8238 94.43 39.1132 94.7063 39.4906C94.9826 39.8679 95.1898 40.3203 95.3279 40.8475C95.4712 41.3696 95.5428 41.9511 95.5428 42.5921ZM94.1153 42.755V42.5921C94.1153 42.1734 94.0718 41.7806 93.9848 41.4135C93.8979 41.0414 93.7623 40.7157 93.5781 40.4366C93.399 40.1523 93.1687 39.93 92.8873 39.7697C92.6059 39.6043 92.2708 39.5216 91.8819 39.5216C91.5238 39.5216 91.2117 39.5836 90.9456 39.7077C90.6847 39.8318 90.4621 39.9998 90.2779 40.2117C90.0937 40.4185 89.9428 40.6563 89.8251 40.9251C89.7125 41.1887 89.6281 41.4627 89.5718 41.747V43.7552C89.6742 44.117 89.8174 44.4582 90.0016 44.7787C90.1858 45.094 90.4314 45.3499 90.7384 45.5463C91.0454 45.7376 91.4317 45.8332 91.8973 45.8332C92.281 45.8332 92.611 45.7531 92.8873 45.5929C93.1687 45.4274 93.399 45.2026 93.5781 44.9183C93.7623 44.634 93.8979 44.3083 93.9848 43.9413C94.0718 43.5691 94.1153 43.1737 94.1153 42.755Z" fill="white"/>
</svg>
